Coordinates
version=1
nRows=14
nColumns=40
inDegrees=yes

Units are S.I. units (second, meters, Newtons, ...)
Angles are in degrees.

endheader
time	pelvis_tilt	pelvis_list	pelvis_rotation	pelvis_tx	pelvis_ty	pelvis_tz	hip_flexion_r	hip_adduction_r	hip_rotation_r	knee_angle_r	knee_angle_r_beta	ankle_angle_r	subtalar_angle_r	mtp_angle_r	hip_flexion_l	hip_adduction_l	hip_rotation_l	knee_angle_l	knee_angle_l_beta	ankle_angle_l	subtalar_angle_l	mtp_angle_l	lumbar_extension	lumbar_bending	lumbar_rotation	arm_flex_r	arm_add_r	arm_rot_r	elbow_flex_r	pro_sup_r	wrist_flex_r	wrist_dev_r	arm_flex_l	arm_add_l	arm_rot_l	elbow_flex_l	pro_sup_l	wrist_flex_l	wrist_dev_l
     50.33750000	     -6.01438799	     -4.81274638	      1.45208179	      0.93781297	      0.93045881	      0.48661325	     12.11474115	      3.57234249	    -15.30702698	     14.63116078	     14.63116078	     10.86801024	      2.78988661	     -2.17780560	     32.28356011	    -10.69065634	      0.94738256	     52.51289174	     52.51289174	     11.21316761	    -18.57860450	     13.30922020	    -10.67817486	      6.55381101	      1.46717404	     27.25818312	    -18.94864682	     -6.05968077	     77.19657158	     44.93417532	      0.00000000	      0.00000000	     -4.38813830	     -6.29234241	     -1.42241970	     28.02746620	     45.13427722	      0.00000000	      0.00000000
     50.35071429	     -6.20801263	     -4.73391521	      1.81467935	      0.93565456	      0.93061414	      0.48627304	     11.64172133	      3.54599742	    -15.51142498	     13.93899688	     13.93899688	     10.86216717	      2.87314912	     -2.32813785	     33.05987485	    -10.19887730	      1.15200649	     49.14226938	     49.14226938	     11.34538437	    -18.46334032	     13.26699004	    -10.76436247	      6.52127117	      1.64065093	     29.36175927	    -19.08643392	     -6.25500896	     78.57413379	     44.91869594	      0.00000000	      0.00000000	     -5.50336770	     -6.18130862	     -0.59720476	     27.99382461	     44.99876232	      0.00000000	      0.00000000
     50.36392857	     -6.39908292	     -4.60978204	      2.16318064	      0.93352417	      0.93063971	      0.48578790	     11.25587423	      3.43151546	    -15.72820212	     13.43832419	     13.43832419	     10.93837562	      2.95864987	     -2.45231271	     33.62760806	     -9.57937862	      1.43356736	     45.43103310	     45.43103310	     11.41951543	    -18.25363822	     13.27007454	    -10.84662500	      6.42335534	      1.87811893	     31.31317218	    -19.31990868	     -6.36749982	     79.92787366	     44.89439809	      0.00000000	      0.00000000	     -6.51521231	     -6.04556826	     -0.17166176	     27.98225165	     44.92248657	      0.00000000	      0.00000000
     50.37714286	     -6.60932858	     -4.55025350	      2.47432047	      0.93149670	      0.93042610	      0.48528058	     10.92092876	      3.34920506	    -16.12998232	     13.01319948	     13.01319948	     10.95134048	      3.31593873	     -3.04926585	     33.99056774	     -9.05106120	      1.68550500	     41.35954206	     41.35954206	     10.82668549	    -17.88145833	     11.47132926	    -10.94479982	      6.40400972	      2.15772934	     33.11343202	    -19.75185783	     -6.15619726	     81.88506014	     44.86576054	      0.00000000	      0.00000000	     -7.85068397	     -6.26812544	      1.38546320	     28.93610905	     44.69499566	      0.00000000	      0.00000000
     50.39035714	     -6.84166274	     -4.46758980	      2.78778085	      0.92947476	      0.93007091	      0.48456960	     10.68938144	      3.24765040	    -16.23810568	     12.73393950	     12.73393950	     11.11832639	      3.23116670	     -3.11005808	     34.33572051	     -8.42938174	      2.08905302	     37.39064614	     37.39064614	     10.99524148	    -16.97749413	     11.68674086	    -10.91809948	      6.34813168	      2.43394349	     35.02581550	    -19.89156468	     -6.32127310	     82.89620560	     44.85127038	      0.00000000	      0.00000000	     -8.61788793	     -6.06223598	      1.62872547	     28.74192545	     44.65399193	      0.00000000	      0.00000000
     50.40357143	     -7.01362279	     -4.47312314	      3.08304810	      0.92766015	      0.92960147	      0.48384229	     10.41367801	      3.18966768	    -16.67514946	     12.53624059	     12.53624059	     11.29994229	      3.62983911	     -3.44559000	     34.40084037	     -7.92938050	      2.51531685	     33.19485994	     33.19485994	     10.25673579	    -16.07268532	      9.66460813	    -11.00803932	      6.41528216	      2.54525454	     36.84609309	    -20.07055395	     -5.97969009	     84.55032036	     44.83681761	      0.00000000	      0.00000000	     -9.73552033	     -6.21006836	      3.12091461	     29.40148615	     44.47966046	      0.00000000	      0.00000000
     50.41678571	     -7.26331229	     -4.53733037	      3.32971873	      0.92593207	      0.92888282	      0.48317392	     10.28237137	      3.22755568	    -16.76927091	     12.44362513	     12.44362513	     11.53680083	      3.49431215	     -3.54296998	     34.63010374	     -7.55692164	      2.87190671	     29.46488269	     29.46488269	     10.52076539	    -14.36173166	     10.01147240	    -10.91767953	      6.49603969	      2.86673347	     38.64703955	    -20.16973296	     -6.12563589	     85.41016269	     44.82477993	      0.00000000	      0.00000000	    -10.37715137	     -6.08882902	      3.24842951	     29.21267630	     44.45830636	      0.00000000	      0.00000000
     50.43000000	     -7.32811815	     -4.53612159	      3.52060531	      0.92456828	      0.92843639	      0.48250471	      9.92659856	      3.20593543	    -16.88898773	     12.35901674	     12.35901674	     11.83997665	      3.50742805	     -3.65592185	     34.49842445	     -7.22059778	      2.99620836	     25.84879763	     25.84879763	     10.66301856	    -12.47800820	     10.39970687	    -11.04456071	      6.48853408	      2.90550625	     40.36218474	    -19.90847731	     -6.02921580	     86.60282350	     44.79611994	      0.00000000	      0.00000000	    -11.11872518	     -6.05553393	      3.44767226	     29.02569812	     44.42915182	      0.00000000	      0.00000000
     50.44321429	     -7.44707399	     -4.61262352	      3.67085571	      0.92334722	      0.92774223	      0.48179639	      9.65827064	      3.25150679	    -16.97260760	     12.33966553	     12.33966553	     12.13149783	      3.54564261	     -3.76190380	     34.48632476	     -7.00079183	      3.05013421	     22.73961807	     22.73961807	     10.76959768	    -10.60906339	     10.81781457	    -11.07211037	      6.55238311	      3.05122918	     41.96075133	    -19.73594796	     -5.90505697	     87.60349544	     44.77172343	      0.00000000	      0.00000000	    -11.75698692	     -6.01677907	      3.60506272	     28.93707514	     44.40592549	      0.00000000	      0.00000000
     50.45642857	     -7.52540507	     -4.71773936	      3.79118143	      0.92240884	      0.92702968	      0.48106242	      9.33677883	      3.33334957	    -17.03430194	     12.33585636	     12.33585636	     12.46003735	      3.57321261	     -3.84885985	     34.45363784	     -6.85976930	      2.92320454	     20.14934515	     20.14934515	     10.79275487	     -8.89579621	     11.28210379	    -11.08564271	      6.64295379	      3.18005980	     43.44090648	    -19.50057201	     -5.73508901	     88.53015193	     44.74751505	      0.00000000	      0.00000000	    -12.32924159	     -5.98502767	      3.74613829	     28.88955841	     44.38543406	      0.00000000	      0.00000000
     50.46964286	     -7.51942265	     -4.80858637	      3.86687248	      0.92181683	      0.92640251	      0.48029815	      8.87939657	      3.41783372	    -17.05545771	     12.30033831	     12.30033831	     12.85239999	      3.63308181	     -3.87183750	     34.34725265	     -6.77917929	      2.46941894	     18.13553745	     18.13553745	     10.75038786	     -7.37437514	     11.77525519	    -11.15347984	      6.71854284	      3.18624949	     44.75298883	    -19.10717748	     -5.42752045	     89.47052148	     44.72001763	      0.00000000	      0.00000000	    -12.96949890	     -6.03846923	      3.91702081	     28.89742922	     44.36351064	      0.00000000	      0.00000000
     50.48285714	     -7.65984280	     -5.06428484	      3.90800708	      0.92139370	      0.92530586	      0.47948130	      8.60894788	      3.65990733	    -17.03298309	     12.30822200	     12.30822200	     13.22275106	      3.64064846	     -3.97506669	     34.66262002	     -6.81137450	      2.29126033	     17.10143777	     17.10143777	     10.55405422	     -6.73356564	     12.01127510	    -10.92161396	      6.94410142	      3.55169621	     45.84859249	    -19.04532286	     -5.42082972	     89.92969537	     44.71153190	      0.00000000	      0.00000000	    -13.39869508	     -6.09157022	      3.94451508	     28.82811650	     44.35648704	      0.00000000	      0.00000000
     50.49607143	     -7.64376344	     -5.12847132	      3.88275383	      0.92128153	      0.92472528	      0.47866446	      8.09135647	      3.73121166	    -16.95081945	     12.23266651	     12.23266651	     13.56152623	      3.68042609	     -3.96752060	     34.45288087	     -6.78171040	      1.55068509	     16.01425259	     16.01425259	     10.09936931	     -5.98848585	     12.34234122	    -10.94291742	      6.93080356	      3.61170361	     46.89430021	    -18.59396605	     -5.19938241	     90.66516300	     44.68851764	      0.00000000	      0.00000000	    -13.70061080	     -6.07682232	      4.03679076	     28.83853621	     44.34472216	      0.00000000	      0.00000000
     50.50928571	     -7.51598090	     -5.18883793	      3.85860517	      0.92167100	      0.92420116	      0.47769708	      7.34723920	      3.81655994	    -16.86388511	     12.02853903	     12.02853903	     13.97029031	      3.82070227	     -3.82360239	     34.18201513	     -6.78004421	      0.72436835	     15.58929289	     15.58929289	      9.61149387	     -5.52382058	     12.40128057	    -11.01422685	      6.91543790	      3.46193582	     47.60657059	    -17.90613073	     -4.79017753	     91.48149019	     44.65813403	      0.00000000	      0.00000000	    -14.12199187	     -6.13816348	      4.16839338	     28.88909115	     44.32965522	      0.00000000	      0.00000000
